<?xml version="1.0" encoding="UTF-8" standalone="no"?>
<!DOCTYPE svg PUBLIC "-//W3C//DTD SVG 1.1//EN" "http://www.w3.org/Graphics/SVG/1.1/DTD/svg11.dtd">
<svg width="100%" height="100%" viewBox="0 0 520 310" version="1.1" xmlns="http://www.w3.org/2000/svg" xmlns:xlink="http://www.w3.org/1999/xlink" xml:space="preserve" xmlns:serif="http://www.serif.com/" style="fill-rule:evenodd;clip-rule:evenodd;stroke-linejoin:round;stroke-miterlimit:2;">
    <style>
        path { fill: #000000; }
        @media (prefers-color-scheme: dark) {
            path { fill: #ffffff; }
        }
    </style>
    <g transform="matrix(0.2973,0,0,0.360108,-225.326,-289.247)">
        <path d="M1242.14,1301.77C1248.49,1301.77 1253.49,1304.19 1257.15,1309.03C1260.82,1313.87 1262.65,1320.52 1262.65,1328.99C1262.65,1345.11 1258.01,1357.61 1248.73,1366.48C1228.71,1386.64 1206.73,1403.88 1182.8,1418.19C1158.87,1432.5 1135.19,1439.66 1111.75,1439.66C1074.63,1439.66 1046.3,1421.72 1026.77,1385.84C1006.26,1407.2 988.311,1421.52 972.927,1428.77C957.544,1436.03 939.597,1439.66 919.085,1439.66C889.295,1439.66 864.755,1430.49 845.464,1412.14C826.174,1393.8 816.529,1369.91 816.529,1340.48C816.529,1308.22 824.831,1278.29 841.435,1250.67C858.04,1223.05 880.871,1200.47 909.928,1182.93C938.986,1165.39 971.584,1155.01 1007.72,1151.79C1017,1073.57 1034.7,1006.74 1060.83,951.301C1086.96,895.863 1121.27,868.144 1163.76,868.144C1184.76,868.144 1202.21,876.006 1216.13,891.731C1230.05,907.455 1237.01,931.243 1237.01,963.094C1237.01,1008.25 1223.58,1061.07 1196.72,1121.55C1169.86,1182.02 1133.96,1244.12 1089.04,1307.82C1090.99,1331.2 1095.26,1347.93 1101.86,1358.02C1108.45,1368.09 1116.87,1373.13 1127.13,1373.13C1140.31,1373.13 1153.74,1368.3 1167.42,1358.62C1181.09,1348.94 1199.41,1332.82 1222.36,1310.24C1228.22,1304.59 1234.81,1301.77 1242.14,1301.77ZM1155.7,927.413C1146.42,927.413 1137.14,941.02 1127.86,968.235C1118.58,995.45 1110.65,1031.03 1104.05,1074.98C1097.46,1118.93 1092.7,1164.89 1089.77,1212.87C1144.46,1114.49 1171.81,1035.47 1171.81,975.795C1171.81,960.474 1170.23,948.58 1167.05,940.113C1163.88,931.646 1160.09,927.413 1155.7,927.413ZM944.724,1378.58C954.003,1378.58 963.282,1375.45 972.561,1369.2C981.84,1362.95 993.561,1351.36 1007.72,1334.43C1002.84,1312.66 1000.4,1288.26 1000.4,1261.25C1000.4,1251.57 1000.89,1235.85 1001.86,1214.08C975.003,1220.93 952.66,1235.75 934.835,1258.53C917.01,1281.31 908.097,1306.61 908.097,1334.43C908.097,1363.86 920.306,1378.58 944.724,1378.58Z" style="fill-rule:nonzero;"/>
        <path d="M1255.32,1439.66C1236.77,1439.66 1223.7,1431.6 1216.13,1415.47C1208.56,1399.34 1204.78,1373.54 1204.78,1338.06C1204.78,1285.64 1213.81,1235.85 1231.88,1188.68C1236.28,1176.98 1243.48,1168.42 1253.49,1162.97C1263.5,1157.53 1277.54,1154.81 1295.61,1154.81C1305.38,1154.81 1312.22,1155.82 1316.12,1157.83C1320.03,1159.85 1321.99,1163.68 1321.99,1169.32C1321.99,1175.78 1318.32,1190.29 1311,1212.87C1306.11,1229 1302.21,1243.11 1299.28,1255.2C1296.35,1267.3 1293.9,1282.22 1291.95,1299.96C1308.07,1265.28 1326.14,1237.06 1346.16,1215.29C1366.18,1193.52 1385.84,1177.99 1405.13,1168.72C1424.42,1159.45 1442.12,1154.81 1458.24,1154.81C1489.98,1154.81 1505.85,1167.91 1505.85,1194.12C1505.85,1199.36 1503.66,1212.06 1499.26,1232.22C1495.36,1248.35 1493.4,1258.43 1493.4,1262.46C1493.4,1276.57 1499.51,1283.63 1511.71,1283.63C1525.39,1283.63 1542.97,1274.76 1564.46,1257.02C1570.81,1251.78 1577.4,1249.15 1584.24,1249.15C1590.59,1249.15 1595.59,1251.47 1599.25,1256.11C1602.92,1260.75 1604.75,1266.89 1604.75,1274.56C1604.75,1289.47 1599.86,1301.17 1590.1,1309.63C1576.42,1321.33 1560.43,1331.3 1542.12,1339.57C1523.8,1347.83 1504.39,1351.97 1483.88,1351.97C1458,1351.97 1438.34,1346.52 1424.91,1335.64C1411.48,1324.75 1404.76,1310.04 1404.76,1291.49C1404.76,1285.44 1405.5,1279.39 1406.96,1273.35C1407.94,1265.28 1408.43,1259.84 1408.43,1257.02C1408.43,1250.57 1405.74,1247.34 1400.37,1247.34C1393.04,1247.34 1383.4,1254.09 1371.43,1267.6C1359.47,1281.11 1347.62,1298.95 1335.9,1321.12C1324.18,1343.3 1314.66,1366.68 1307.34,1391.28C1301.96,1410.23 1295.74,1423.03 1288.65,1429.68C1281.57,1436.33 1270.46,1439.66 1255.32,1439.66Z" style="fill-rule:nonzero;"/>
        <path d="M1626.73,1439.66C1596.45,1439.66 1572.27,1430.59 1554.2,1412.44C1536.13,1394.3 1527.1,1370.51 1527.1,1341.08C1527.1,1308.83 1536.13,1278.29 1554.2,1249.46C1572.27,1220.63 1596.32,1197.45 1626.36,1179.91C1656.39,1162.37 1688.26,1153.6 1721.95,1153.6C1732.7,1153.6 1739.9,1155.31 1743.57,1158.74C1747.23,1162.17 1750.28,1168.32 1752.72,1177.19C1762.98,1175.57 1773.72,1174.77 1784.95,1174.77C1808.88,1174.77 1820.85,1181.82 1820.85,1195.93C1820.85,1204.4 1817.19,1224.56 1809.86,1256.41C1798.63,1302.78 1793.01,1335.03 1793.01,1353.18C1793.01,1359.22 1794.84,1364.06 1798.51,1367.69C1802.17,1371.32 1806.93,1373.13 1812.79,1373.13C1822.07,1373.13 1833.3,1368.19 1846.49,1358.32C1859.67,1348.44 1877.5,1332.41 1899.96,1310.24C1905.82,1304.59 1912.42,1301.77 1919.74,1301.77C1926.09,1301.77 1931.1,1304.19 1934.76,1309.03C1938.42,1313.87 1940.25,1320.52 1940.25,1328.99C1940.25,1345.11 1935.62,1357.61 1926.34,1366.48C1906.31,1387.04 1885.07,1404.38 1862.6,1418.49C1840.14,1432.6 1818.41,1439.66 1797.41,1439.66C1781.29,1439.66 1766.52,1435.12 1753.09,1426.05C1739.66,1416.98 1729.53,1404.58 1722.69,1388.86C1697.29,1422.73 1665.31,1439.66 1626.73,1439.66ZM1653.1,1378.58C1663.84,1378.58 1674.1,1373.34 1683.86,1362.85C1693.63,1352.37 1700.71,1338.46 1705.11,1321.12L1732.21,1209.84C1711.7,1210.25 1692.78,1216.6 1675.44,1228.89C1658.1,1241.19 1644.31,1257.42 1634.05,1277.58C1623.79,1297.74 1618.67,1319.11 1618.67,1341.69C1618.67,1354.18 1621.72,1363.46 1627.82,1369.51C1633.93,1375.55 1642.35,1378.58 1653.1,1378.58Z" style="fill-rule:nonzero;"/>
        <path d="M2165.88,1267.3C2179.55,1267.3 2186.39,1275.77 2186.39,1292.7C2186.39,1324.55 2156.11,1340.48 2095.55,1340.48C2083.83,1340.48 2066.99,1338.66 2045.01,1335.03C2051.36,1360.03 2056.61,1387.75 2060.76,1418.19C2064.91,1448.63 2066.99,1473.73 2066.99,1493.49C2066.99,1537.03 2058.44,1570.29 2041.35,1593.27C2024.25,1616.26 2001.79,1627.75 1973.95,1627.75C1938.79,1627.75 1913.76,1607.18 1898.87,1566.06C1883.97,1524.93 1876.52,1462.84 1876.52,1379.79C1876.52,1302.38 1886.66,1223.86 1906.92,1144.23C1927.19,1064.6 1955.03,998.676 1990.43,946.463C2025.84,894.25 2064.79,868.144 2107.28,868.144C2130.23,868.144 2148.18,876.611 2161.12,893.545C2174.06,910.479 2180.53,933.259 2180.53,961.885C2180.53,1056.63 2111.91,1159.85 1974.68,1271.53C1969.8,1311.04 1967.36,1345.72 1967.36,1375.55C1967.36,1417.08 1969.07,1459.72 1972.49,1503.46C1975.9,1547.21 1981.52,1569.08 1989.34,1569.08C2003.99,1569.08 2011.31,1548.12 2011.31,1506.19C2011.31,1474.74 2008.75,1444.3 2003.62,1414.86C1998.49,1385.43 1991.53,1354.39 1982.74,1321.73C1982.25,1316.49 1984.33,1309.83 1988.97,1301.77C1993.61,1293.71 1999.35,1286.65 2006.18,1280.6C2013.02,1274.56 2019.12,1271.53 2024.5,1271.53C2034.26,1271.53 2045.99,1271.93 2059.66,1272.74C2064.05,1273.14 2069.18,1273.35 2075.04,1273.35C2094.58,1273.35 2116.31,1271.93 2140.24,1269.11C2144.15,1268.71 2148.3,1268.31 2152.69,1267.9C2157.09,1267.5 2161.48,1267.3 2165.88,1267.3ZM2091.89,928.017C2083.1,928.017 2072.23,940.314 2059.29,964.909C2046.35,989.503 2033.53,1022.06 2020.83,1062.58C2008.14,1103.1 1997.15,1145.94 1987.87,1191.1C2026.94,1154.41 2056.97,1116.2 2077.97,1076.49C2098.97,1036.78 2109.72,999.583 2110.2,964.909C2110.2,940.314 2104.1,928.017 2091.89,928.017Z" style="fill-rule:nonzero;"/>
        <path d="M2258.91,1212.26C2257.93,1232.42 2257.45,1248.15 2257.45,1259.44C2257.45,1288.46 2259.28,1311.14 2262.94,1327.47C2266.6,1343.8 2272.71,1355.5 2281.25,1362.55C2289.8,1369.61 2301.64,1373.13 2316.78,1373.13C2324.6,1373.13 2333.88,1371.12 2344.62,1367.09C2355.36,1363.06 2365.13,1357.81 2373.92,1351.36C2379.29,1347.33 2384.66,1345.31 2390.04,1345.31C2395.9,1345.31 2400.66,1348.04 2404.32,1353.48C2407.99,1358.92 2409.82,1365.47 2409.82,1373.13C2409.82,1380.8 2407.99,1388.25 2404.32,1395.51C2400.66,1402.77 2395.16,1408.82 2387.84,1413.65C2362.45,1430.99 2333.63,1439.66 2301.4,1439.66C2255.01,1439.66 2221.06,1423.63 2199.58,1391.58C2178.09,1359.53 2167.34,1317.7 2167.34,1266.09C2167.34,1248.35 2168.08,1230.41 2169.54,1212.26L2140.97,1212.26C2126.32,1212.26 2116.43,1210.05 2111.3,1205.61C2106.18,1201.18 2103.61,1194.12 2103.61,1184.44C2103.61,1161.87 2114.6,1150.58 2136.58,1150.58L2178.33,1150.58C2186.63,1106.23 2199.33,1065.7 2216.42,1029.02C2233.52,992.325 2254.15,963.094 2278.32,941.322C2302.5,919.55 2328.5,908.664 2356.34,908.664C2376.85,908.664 2392.97,916.123 2404.69,931.041C2416.41,945.959 2422.27,964.707 2422.27,987.286C2422.27,1049.78 2390.53,1104.21 2327.04,1150.58L2409.08,1150.58C2416.9,1150.58 2422.51,1151.99 2425.93,1154.81C2429.35,1157.63 2431.06,1162.87 2431.06,1170.53C2431.06,1198.35 2403.47,1212.26 2348.28,1212.26L2258.91,1212.26ZM2336.56,966.723C2329.24,966.723 2321.06,974.283 2312.02,989.402C2302.99,1004.52 2294.44,1025.49 2286.38,1052.3C2278.32,1079.11 2271.61,1108.85 2266.24,1141.5C2295.05,1120.94 2316.66,1097.86 2331.07,1072.26C2345.47,1046.65 2352.68,1023.37 2352.68,1002.4C2352.68,978.617 2347.3,966.723 2336.56,966.723Z" style="fill-rule:nonzero;"/>
    </g>
</svg>
