<?xml version="1.0" encoding="UTF-8" standalone="no"?>
<!DOCTYPE svg PUBLIC "-//W3C//DTD SVG 1.1//EN" "http://www.w3.org/Graphics/SVG/1.1/DTD/svg11.dtd">
<svg width="100%" height="100%" viewBox="0 0 520 310" version="1.1" xmlns="http://www.w3.org/2000/svg" xmlns:xlink="http://www.w3.org/1999/xlink" xml:space="preserve" xmlns:serif="http://www.serif.com/" style="fill-rule:evenodd;clip-rule:evenodd;stroke-linejoin:round;stroke-miterlimit:2;">
    <style>
        path { fill: #000000; }
        @media (prefers-color-scheme: dark) {
            path { fill: #ffffff; }
        }
    </style>
    <g transform="matrix(1.48459,0,0,1,-29.6322,14.4338)">
        <g transform="matrix(1,0,0,1,0,6)">
            <path d="M98.847,193.172C94.267,193.172 90.697,191.672 88.137,188.672C87.059,187.072 86.521,182.872 86.521,176.072C86.521,169.272 86.723,160.372 87.127,149.372C83.489,163.772 79.785,174.672 76.013,182.072C72.241,189.472 67.492,193.172 61.766,193.172C56.041,193.172 51.191,189.472 47.217,182.072C43.243,174.672 41.256,162.872 41.256,146.672C41.256,130.472 44.32,116.172 50.45,103.772C56.58,91.372 64.629,85.172 74.598,85.172C79.448,85.172 84.5,87.972 89.754,93.572C91.909,54.572 93.863,32.572 95.614,27.572C96.422,25.372 98.342,22.172 101.373,17.972C104.404,13.772 106.93,11.672 108.951,11.672C110.972,11.672 111.982,16.372 111.982,25.772C111.982,36.772 111.309,46.272 109.961,54.272C106.324,74.872 104.034,87.972 103.091,93.572C101.205,115.172 100.262,140.572 100.262,169.772C100.262,175.172 100.666,177.872 101.474,177.872C103.899,177.672 107.132,173.472 111.174,165.272C115.215,157.072 119.223,146.422 123.197,133.322C127.172,120.222 129.596,113.672 130.472,113.672C131.348,113.672 131.786,114.472 131.786,116.072C131.786,121.672 129.832,130.572 125.925,142.772C115.283,176.372 106.257,193.172 98.847,193.172ZM73.386,95.972C69.748,95.972 66.111,100.272 62.474,108.872C58.836,117.472 57.017,127.422 57.017,138.722C57.017,150.022 57.994,159.272 59.948,166.472C61.901,173.672 64.36,177.272 67.323,177.272C73.386,177.272 80.324,159.272 88.137,123.272C88.811,112.272 89.148,105.772 89.148,103.772C85.241,98.572 79.987,95.972 73.386,95.972Z" style="fill-rule:nonzero;"/>
        </g>
        <g transform="matrix(1,0,0,1,0,6)">
            <path d="M138.454,113.372L149.568,111.572C150.646,111.572 151.589,112.472 152.397,114.272C153.206,116.072 153.61,117.972 153.61,119.972C153.61,121.972 153.172,128.772 152.296,140.372C151.421,151.972 150.983,161.122 150.983,167.822C150.983,174.522 151.387,177.872 152.195,177.872C154.485,177.672 157.651,173.422 161.693,165.122C165.734,156.822 169.742,146.172 173.716,133.172C177.691,120.172 180.115,113.672 180.991,113.672C181.867,113.672 182.305,114.472 182.305,116.072C182.305,121.672 180.351,130.572 176.444,142.772C165.802,176.372 156.843,193.172 149.568,193.172C144.314,193.172 140.34,191.572 137.646,188.372C136.703,186.972 136.231,178.272 136.231,162.272C136.231,146.272 137.376,132.572 139.667,121.172C131.853,121.172 126.397,117.472 123.298,110.072C121.682,106.272 120.873,101.972 120.873,97.172C120.873,92.372 121.547,88.172 122.894,84.572C124.241,80.972 126.161,79.172 128.653,79.172C131.146,79.172 133.436,81.122 135.524,85.022C137.612,88.922 138.656,93.272 138.656,98.072C138.656,102.872 137.713,107.672 135.827,112.472C136.366,113.072 137.242,113.372 138.454,113.372Z" style="fill-rule:nonzero;"/>
        </g>
        <g transform="matrix(1,0,0,1,0,6)">
            <path d="M229.186,193.172C223.932,193.172 219.958,191.572 217.264,188.372C216.321,186.972 215.849,183.422 215.849,177.722C215.849,172.022 215.984,164.372 216.253,154.772C212.751,167.772 209.282,177.422 205.846,183.722C202.411,190.022 197.999,193.172 192.61,193.172C187.222,193.172 182.507,189.422 178.465,181.922C174.424,174.422 172.403,162.622 172.403,146.522C172.403,130.422 175.468,116.172 181.597,103.772C187.727,91.372 195.776,85.172 205.745,85.172C210.056,85.172 214.906,89.372 220.295,97.772C221.373,95.572 223.292,92.922 226.054,89.822C228.816,86.722 231.173,85.172 233.127,85.172C235.08,85.172 236.057,88.972 236.057,96.572C236.057,98.572 235.686,102.472 234.945,108.272C234.204,114.072 233.362,118.272 232.419,120.872C231.207,125.472 230.601,141.772 230.601,169.772C230.601,175.172 231.005,177.872 231.813,177.872C234.103,177.672 237.269,173.422 241.311,165.122C245.352,156.822 249.36,146.172 253.334,133.172C257.308,120.172 259.733,113.672 260.609,113.672C261.485,113.672 261.923,114.472 261.923,116.072C261.923,121.672 259.969,130.572 256.062,142.772C245.42,176.372 236.461,193.172 229.186,193.172ZM204.533,97.172C200.761,97.172 196.753,101.322 192.509,109.622C188.266,117.922 186.144,127.672 186.144,138.872C186.144,150.072 187.255,159.272 189.478,166.472C191.701,173.672 194.631,177.272 198.269,177.272C202.714,177.272 209.248,160.772 217.87,127.772C218.005,126.172 218.173,123.422 218.375,119.522C218.577,115.622 218.746,112.672 218.88,110.672C217.668,107.472 215.546,104.422 212.515,101.522C209.484,98.622 206.823,97.172 204.533,97.172Z" style="fill-rule:nonzero;"/>
        </g>
        <g transform="matrix(1,0,0,1,0,6)">
            <path d="M279.907,128.372C287.182,125.772 293.278,122.472 298.195,118.472C303.112,114.472 305.706,112.472 305.975,112.472C306.783,112.472 307.188,113.472 307.188,115.472C307.188,117.472 305.84,119.972 303.146,122.972C297.488,129.172 290.415,134.472 281.928,138.872C285.431,158.672 287.182,179.672 287.182,201.872C287.182,220.472 285.768,238.272 282.938,255.272C281.322,264.872 278.796,272.672 275.361,278.672C271.925,284.672 267.715,287.672 262.731,287.672C258.42,287.672 255.456,284.872 253.84,279.272C251.819,272.672 250.674,266.372 250.404,260.372C250,250.972 249.798,235.672 249.798,214.472C249.798,193.272 250.876,167.672 253.031,137.672C248.181,132.472 245.756,126.122 245.756,118.622C245.756,111.122 246.834,105.322 248.99,101.222C251.145,97.122 253.84,94.472 257.073,93.272C258.959,75.872 260.811,60.872 262.63,48.272C264.449,35.672 267.244,25.422 271.016,17.522C274.788,9.622 278.56,5.672 282.332,5.672C286.643,5.672 288.799,12.772 288.799,26.972C288.799,49.372 283.208,74.572 272.026,102.572C274.855,108.572 277.482,117.172 279.907,128.372ZM265.762,143.372C264.55,167.972 263.943,196.222 263.943,228.122C263.943,260.022 265.088,275.972 267.379,275.972C271.42,275.972 274.788,268.122 277.482,252.422C280.177,236.722 281.524,219.122 281.524,199.622C281.524,180.122 280.042,160.572 277.078,140.972C273.037,142.572 269.265,143.372 265.762,143.372ZM268.793,98.372C272.7,88.772 276.27,77.422 279.503,64.322C282.736,51.222 284.353,40.272 284.353,31.472C284.353,22.672 283.747,18.272 282.534,18.272C280.379,18.272 278.055,25.572 275.563,40.172C273.07,54.772 270.814,74.172 268.793,98.372ZM268.793,110.372L267.581,113.372L266.57,128.672C268.322,129.472 269.905,129.872 271.319,129.872C272.734,129.872 273.912,129.772 274.855,129.572C273.104,121.772 271.083,115.372 268.793,110.372ZM256.264,100.772C254.244,101.772 253.233,104.072 253.233,107.672C253.233,111.272 253.772,114.372 254.85,116.972C255.389,109.772 255.86,104.372 256.264,100.772Z" style="fill-rule:nonzero;"/>
        </g>
        <g transform="matrix(1,0,0,1,0,6)">
            <path d="M340.934,142.772C330.292,176.372 321.299,193.172 313.957,193.172C306.615,193.172 302.304,191.872 301.024,189.272C299.744,186.672 299.105,178.072 299.105,163.472C299.105,148.872 300.048,127.772 301.934,100.172C295.198,98.172 291.628,94.072 291.224,87.872C291.224,84.672 292.638,83.072 295.467,83.072C298.296,83.072 300.789,83.872 302.944,85.472C304.156,71.072 305.571,56.472 307.188,41.672C307.592,37.872 308.872,34.272 311.027,30.872C313.183,27.472 315.271,25.772 317.291,25.772C319.043,25.772 319.918,29.872 319.918,38.072C319.918,41.872 318.975,59.372 317.089,90.572C320.727,89.572 324.735,87.572 329.113,84.572C333.491,81.572 336.084,80.072 336.893,80.072C339.318,80.072 340.53,81.172 340.53,83.372C340.665,85.372 338.173,88.122 333.053,91.622C327.934,95.122 322.411,97.772 316.483,99.572C314.866,128.772 314.058,150.872 314.058,165.872C314.058,173.872 314.866,177.872 316.483,177.872C318.908,177.672 322.141,173.472 326.183,165.272C330.224,157.072 334.232,146.422 338.206,133.322C342.18,120.222 344.605,113.672 345.481,113.672C346.357,113.672 346.794,114.472 346.794,116.072C346.794,121.672 344.841,130.572 340.934,142.772Z" style="fill-rule:nonzero;"/>
        </g>
    </g>
</svg>
